<?xml version="1.0" encoding="utf-8"?>
<!-- Generator: Adobe Illustrator 16.0.0, SVG Export Plug-In . SVG Version: 6.00 Build 0)  -->
<!DOCTYPE svg PUBLIC "-//W3C//DTD SVG 1.1//EN" "http://www.w3.org/Graphics/SVG/1.1/DTD/svg11.dtd">
<svg version="1.1" id="Layer_1" xmlns="http://www.w3.org/2000/svg" xmlns:xlink="http://www.w3.org/1999/xlink" x="0px" y="0px"
	 width="32px" height="32px" viewBox="128.5 256.5 32 32" enable-background="new 128.5 256.5 32 32" xml:space="preserve">
<g>
	<path fill="#FFFFFF" d="M141.979,281.452c-1.379,0-2.692-0.66-3.516-1.765c-0.665-0.89-0.956-1.994-0.846-3.074
		c-0.195,0.039-0.395,0.059-0.598,0.059c-0.951,0-1.828-0.432-2.406-1.184c-0.912-1.188-0.807-2.846,0.182-3.91
		c-0.895-2.014-0.148-4.428,1.796-5.566c0.673-0.393,1.437-0.601,2.211-0.601c1.085,0,2.118,0.405,2.911,1.104
		c0.596-1.723,2.238-2.968,4.148-2.968c1.23,0.017,2.326,0.487,3.145,1.326c0.637,0.653,1.044,1.469,1.188,2.351
		c0.242-0.041,0.486-0.062,0.733-0.062c1.038,0,2.046,0.37,2.837,1.041c1.192,1.009,1.76,2.592,1.481,4.131
		c-0.24,1.327-1.084,2.465-2.261,3.09c0.692,2.029-0.193,4.318-2.158,5.321c-0.615,0.314-1.305,0.48-1.99,0.48
		c-1.311,0-2.52-0.572-3.342-1.539c-0.712,0.951-1.795,1.59-3.001,1.732C142.32,281.441,142.148,281.452,141.979,281.452z"/>
	<path d="M145.861,264.148c0.018,0,0.033,0,0.051,0c2.093,0.027,3.765,1.746,3.736,3.836c0.416-0.148,0.849-0.221,1.277-0.221
		c0.885,0,1.754,0.31,2.449,0.897c1.033,0.875,1.52,2.233,1.277,3.565c-0.239,1.332-1.174,2.433-2.448,2.89
		c0.95,1.862,0.212,4.144-1.651,5.096c-0.551,0.281-1.139,0.415-1.718,0.415c-1.379,0-2.708-0.755-3.378-2.066
		c-0.534,1.244-1.691,2.106-3.035,2.266c-0.148,0.018-0.297,0.025-0.443,0.025c-1.188,0-2.315-0.557-3.035-1.521
		c-0.811-1.084-0.978-2.52-0.443-3.762c-0.441,0.34-0.963,0.504-1.48,0.504c-0.729,0-1.451-0.327-1.93-0.95
		c-0.818-1.065-0.617-2.593,0.446-3.411c-1.056-1.805-0.448-4.125,1.356-5.181c0.602-0.353,1.26-0.52,1.908-0.52
		c1.303,0,2.568,0.671,3.273,1.876C142.104,265.813,143.794,264.148,145.861,264.148 M145.861,262.949
		c-1.889,0-3.547,1.07-4.394,2.637c-0.786-0.497-1.71-0.773-2.667-0.773c-0.881,0-1.75,0.235-2.514,0.683
		c-2.1,1.228-2.971,3.763-2.184,5.976c-0.945,1.271-0.979,3.066,0.033,4.383c0.688,0.896,1.729,1.412,2.86,1.418
		c0.041,0.989,0.375,1.961,0.983,2.776c0.935,1.254,2.429,2.004,3.996,2.004c0.193,0,0.392-0.012,0.584-0.034
		c1.135-0.134,2.174-0.654,2.959-1.443c0.896,0.797,2.064,1.254,3.313,1.254c0.78,0,1.563-0.189,2.265-0.546
		c2.082-1.063,3.098-3.397,2.588-5.578c1.115-0.743,1.904-1.917,2.146-3.263c0.316-1.748-0.328-3.547-1.684-4.694
		c-0.899-0.763-2.045-1.183-3.226-1.183c-0.089,0-0.178,0.002-0.267,0.006c-0.223-0.787-0.639-1.512-1.225-2.113
		c-0.931-0.955-2.176-1.49-3.509-1.507h-0.008L145.861,262.949L145.861,262.949z"/>
</g>
</svg>
