<?xml version="1.0" encoding="utf-8"?>
<!-- Generator: Adobe Illustrator 16.0.0, SVG Export Plug-In . SVG Version: 6.00 Build 0)  -->
<!DOCTYPE svg PUBLIC "-//W3C//DTD SVG 1.1//EN" "http://www.w3.org/Graphics/SVG/1.1/DTD/svg11.dtd">
<svg version="1.1" id="Layer_1" xmlns="http://www.w3.org/2000/svg" xmlns:xlink="http://www.w3.org/1999/xlink" x="0px" y="0px"
	 width="32px" height="32px" viewBox="96.5 288.5 32 32" enable-background="new 96.5 288.5 32 32" xml:space="preserve">
<g>
	<path d="M110.806,296.151h-0.766c-0.875,0-2.845,0-3.994,0.383c-0.875,0.383-1.915,2.189-2.435,3.118
		c-0.082,0.138-0.164,0.247-0.301,0.191l-0.547-0.191c-0.109-0.054-0.137-0.136-0.109-0.272c0.274-1.039,1.204-4.65,1.313-5.033
		c0.055-0.384,0.219-0.492,0.329-0.492c0.164,0,0.273,0.108,0.438,0.273c0.547,0.547,1.094,0.683,1.86,0.711
		c1.477,0.055,2.626,0.163,5.307,0.163h1.477c3.009,0,4.158-0.108,5.417-0.163c0.52-0.028,1.559-0.411,1.969-0.711
		c0.219-0.165,0.328-0.273,0.492-0.273c0.165,0,0.219,0.108,0.274,0.438c0.054,0.492,0.602,3.884,0.82,5.196
		c0.028,0.164-0.027,0.22-0.109,0.247l-0.547,0.191c-0.109,0.027-0.164-0.056-0.246-0.219c-0.383-0.766-1.395-2.517-2.161-3.063
		c-0.766-0.438-3.228-0.493-4.213-0.493h-0.765v14.58c0,2.079,0.273,2.626,0.93,2.626h1.586c0.11,0,0.164,0.109,0.164,0.246v0.574
		c0,0.165-0.054,0.273-0.273,0.273c-0.274,0-1.148-0.082-4.103-0.082c-2.791,0-3.939,0.082-4.322,0.082
		c-0.165,0-0.219-0.055-0.219-0.246v-0.629c0-0.164,0.082-0.219,0.191-0.219h1.559c0.547,0,0.875-0.328,0.903-0.738
		c0.082-0.712,0.082-9.082,0.082-9.63V296.151z"/>
</g>
</svg>
