<?xml version="1.0" encoding="utf-8"?>
<!-- Generator: Adobe Illustrator 16.0.0, SVG Export Plug-In . SVG Version: 6.00 Build 0)  -->
<!DOCTYPE svg PUBLIC "-//W3C//DTD SVG 1.1//EN" "http://www.w3.org/Graphics/SVG/1.1/DTD/svg11.dtd">
<svg version="1.1" id="Layer_1" xmlns="http://www.w3.org/2000/svg" xmlns:xlink="http://www.w3.org/1999/xlink" x="0px" y="0px"
	 width="256px" height="256px" viewBox="0 0 256 256" enable-background="new 0 0 256 256" xml:space="preserve">
<g>
	<rect x="36" y="48" width="11" height="9"/>
</g>
<g>
	<rect x="39" y="39" fill="#FFFFFF" width="19" height="14"/>
</g>
<polyline fill="#FFFFFF" stroke="#000000" stroke-miterlimit="10" points="85.745,7.569 88.023,5.292 90.251,7.421 87.974,9.7 "/>
<polygon points="116.263,15.708 111.134,10.578 115.543,4.395 122.446,11.297 "/>
<polygon points="22.557,17.828 9,4.698 9,23.394 13.298,19.535 16.394,25.661 19.982,23.951 17.003,18.002 "/>
<g>
	<polygon fill="#FFFFFF" points="45.699,18.701 42,22.227 42,5.894 53.625,17.364 48.372,17.526 51.376,23.719 48.75,24.993 	"/>
	<path d="M42,7.089L52.193,16.9l-3.19,0.103l-1.48,0.048l0.705,1.388l2.465,5.049l-1.719,0.837l-2.531-5.227l-0.596-1.232
		l-1.238,0.945L42,21.06V7 M41,4.698v18.695l4.298-3.858l3.096,6.126l3.588-1.71l-2.855-5.949l5.414-0.175L41,4.698L41,4.698z"/>
</g>
<polygon fill="#FFFFFF" stroke="#000000" stroke-miterlimit="10" points="88.828,10.748 75.823,23.753 70.234,25.26 71.742,19.671 
	84.747,6.666 "/>
<path d="M70.917,22.357c1.074,0,2.165,1.181,2.165,2.232l-2.848,0.67L70.917,22.357z"/>
<rect x="74.118" y="14.962" transform="matrix(-0.7071 -0.7071 0.7071 -0.7071 118.9103 85.7938)" width="6.211" height="6.616"/>
<polygon points="82.689,16.413 84.229,17.786 88.906,13.107 87.368,11.735 "/>
<polygon fill="#FFFFFF" stroke="#000000" stroke-miterlimit="10" points="102.599,25.643 115.132,20.955 116.557,12.406 
	113.992,9.842 106.013,12.691 101.879,24.961 "/>
<line fill="none" stroke="#000000" stroke-width="0.8" stroke-miterlimit="10" x1="110.871" y1="16.521" x2="102.162" y2="25.229"/>
<circle cx="110.871" cy="16.521" r="1.574"/>
<g>
	<path fill="#FFFFFF" d="M141.479,24.952c-1.379,0-2.693-0.66-3.516-1.764c-0.665-0.89-0.956-1.994-0.846-3.075
		c-0.195,0.039-0.395,0.059-0.598,0.059c-0.95,0-1.827-0.432-2.405-1.184c-0.913-1.188-0.807-2.845,0.181-3.91
		c-0.895-2.013-0.149-4.428,1.796-5.566c0.672-0.393,1.437-0.601,2.211-0.601c1.084,0,2.118,0.405,2.911,1.104
		c0.595-1.722,2.238-2.967,4.149-2.967c1.23,0.016,2.326,0.487,3.144,1.326c0.636,0.653,1.044,1.469,1.187,2.351
		c0.242-0.041,0.487-0.062,0.734-0.062c1.038,0,2.046,0.37,2.837,1.041c1.192,1.009,1.76,2.592,1.481,4.131
		c-0.24,1.327-1.084,2.465-2.26,3.09c0.692,2.029-0.194,4.318-2.159,5.321c-0.615,0.314-1.304,0.48-1.99,0.48
		c-1.31,0-2.52-0.571-3.342-1.538c-0.712,0.951-1.795,1.59-3.001,1.732C141.821,24.942,141.649,24.952,141.479,24.952z"/>
	<path d="M145.362,7.648c0.017,0,0.033,0,0.05,0c2.093,0.028,3.765,1.746,3.736,3.837c0.417-0.149,0.849-0.222,1.278-0.222
		c0.884,0,1.754,0.31,2.449,0.898c1.033,0.875,1.52,2.234,1.278,3.566c-0.24,1.331-1.175,2.432-2.449,2.889
		c0.951,1.863,0.212,4.144-1.651,5.096c-0.551,0.281-1.139,0.415-1.718,0.415c-1.379,0-2.708-0.755-3.378-2.066
		c-0.534,1.243-1.692,2.106-3.035,2.265c-0.148,0.018-0.297,0.026-0.444,0.026c-1.188,0-2.315-0.557-3.034-1.522
		c-0.811-1.084-0.978-2.519-0.444-3.762c-0.441,0.34-0.963,0.504-1.48,0.504c-0.729,0-1.451-0.327-1.93-0.95
		c-0.818-1.065-0.618-2.592,0.446-3.411c-1.056-1.805-0.448-4.125,1.357-5.181c0.601-0.352,1.259-0.519,1.908-0.519
		c1.302,0,2.568,0.671,3.273,1.876C141.603,9.312,143.294,7.648,145.362,7.648 M145.362,6.449c-1.89,0-3.548,1.07-4.394,2.637
		c-0.787-0.497-1.71-0.774-2.667-0.774c-0.881,0-1.75,0.236-2.514,0.683c-2.1,1.228-2.97,3.763-2.183,5.975
		c-0.946,1.271-0.979,3.067,0.033,4.383c0.688,0.896,1.729,1.413,2.86,1.419c0.041,0.989,0.375,1.961,0.984,2.776
		c0.934,1.254,2.428,2.004,3.995,2.004c0.194,0,0.392-0.012,0.585-0.034c1.135-0.134,2.174-0.655,2.958-1.444
		c0.896,0.797,2.065,1.254,3.314,1.254c0.781,0,1.563-0.189,2.264-0.546c2.082-1.063,3.099-3.397,2.589-5.578
		c1.115-0.743,1.904-1.917,2.146-3.262c0.316-1.749-0.328-3.548-1.684-4.695c-0.899-0.763-2.045-1.183-3.225-1.183
		c-0.089,0-0.178,0.002-0.266,0.007c-0.223-0.788-0.639-1.512-1.226-2.114c-0.93-0.955-2.175-1.49-3.508-1.507l-0.008,0H145.362
		L145.362,6.449z"/>
</g>
<polygon fill="#FFFFFF" stroke="#000000" stroke-miterlimit="10" points="171.671,10.859 164.625,16.442 175.43,27.247 
	181.133,20.32 "/>
<path d="M182.386,11.346c1.937-1.374,2.829-1.87,3.302-2.342c0.996-0.997,0.996-2.611,0-3.608c-0.996-0.996-2.611-0.996-3.607,0
	c-0.488,0.488-1.08,1.483-2.477,3.495c-0.236,0.34-0.758,1.247-1.195,0.872l-3.304-2.221l-2.937,2.042l10.25,10.25l1.958-2.884
	l-2.624-3.998C181.396,12.458,181.547,11.941,182.386,11.346z M183.735,6.275c0.592,0,1.07,0.479,1.07,1.07s-0.479,1.07-1.07,1.07
	c-0.591,0-1.069-0.479-1.069-1.07S183.145,6.275,183.735,6.275z"/>
<polygon points="166.842,18.539 172.195,14 167.446,19.147 "/>
<polygon points="168.776,20.487 174.13,15.948 169.382,21.096 "/>
<polygon points="170.712,22.435 176.065,17.896 171.316,23.044 "/>
<polygon points="172.646,24.383 178,19.845 173.251,24.992 "/>
<g>
	<path fill="#FFFFFF" d="M206.959,24.894c-5.41,0-9.813-4.401-9.813-9.812s4.402-9.812,9.813-9.812s9.812,4.401,9.812,9.812
		S212.369,24.894,206.959,24.894z"/>
	<path d="M206.959,5.771c5.135,0,9.312,4.177,9.312,9.312s-4.177,9.312-9.312,9.312s-9.313-4.177-9.313-9.312
		S201.824,5.771,206.959,5.771 M206.959,4.771c-5.695,0-10.313,4.617-10.313,10.312s4.617,10.312,10.313,10.312
		c5.694,0,10.312-4.617,10.312-10.312S212.653,4.771,206.959,4.771L206.959,4.771z"/>
</g>
<path fill="none" stroke="#000000" stroke-width="1.5" stroke-miterlimit="10" d="M9.511,41.804c3.442-3.442,9.025-3.442,12.468,0
	c3.443,3.444,3.443,9.027,0,12.47"/>
<g>
	<rect x="229" y="8" fill="#FFFFFF" width="20" height="14"/>
	<path d="M249,8v14h-20V8H249 M250,7h-22v16h22V7L250,7z"/>
</g>
<g>
	<rect x="40" y="40" fill="#FFFFFF" width="18" height="13"/>
	<path d="M57,40v12H40V40H57 M58,39H39v14h19V39L58,39z"/>
</g>
<polygon points="10.592,37.125 13.32,43.045 6.365,43.072 "/>
<g>
	<g>
		<path fill="none" stroke="#000000" stroke-width="1.5" stroke-linecap="round" stroke-miterlimit="10" d="M22.084,54.176
			c-0.116,0.121-0.235,0.238-0.356,0.352"/>
		
			<path fill="none" stroke="#000000" stroke-width="1.5" stroke-linecap="round" stroke-miterlimit="10" stroke-dasharray="1.0542,3.1627" d="
			M19.077,56.23c-3.129,1.286-6.859,0.703-9.459-1.789c-1.288-1.234-2.12-2.766-2.492-4.384"/>
		<path fill="none" stroke="#000000" stroke-width="1.5" stroke-linecap="round" stroke-miterlimit="10" d="M6.912,48.5
			C6.904,48.333,6.9,48.167,6.902,48"/>
	</g>
</g>
<polyline fill="none" stroke="#000000" stroke-miterlimit="10" points="51,41.5 55.5,41.5 55.5,46 "/>
<line fill="none" stroke="#000000" stroke-miterlimit="10" x1="55.5" y1="41.5" x2="50" y2="47"/>
<circle fill="#FFFFFF" stroke="#000000" stroke-miterlimit="10" cx="77.424" cy="46.227" r="7.508"/>
<line fill="none" stroke="#000000" stroke-width="4" stroke-miterlimit="10" x1="82.569" y1="51.685" x2="87.747" y2="56.862"/>
<path fill="none" stroke="#000000" stroke-width="3" stroke-miterlimit="10" d="M7,136.5h7.269c4.571,0,8.231,5.554,8.231,10.123
	V154"/>
<polyline points="10.189,143.751 2.693,136.256 10.189,128.759 "/>
<polyline points="29.685,150.254 22.189,157.75 14.692,150.254 "/>
</svg>
