<?xml version="1.0" encoding="utf-8"?>
<!-- Generator: Adobe Illustrator 16.0.0, SVG Export Plug-In . SVG Version: 6.00 Build 0)  -->
<!DOCTYPE svg PUBLIC "-//W3C//DTD SVG 1.1//EN" "http://www.w3.org/Graphics/SVG/1.1/DTD/svg11.dtd">
<svg version="1.1" id="Layer_1" xmlns="http://www.w3.org/2000/svg" xmlns:xlink="http://www.w3.org/1999/xlink" x="0px" y="0px"
	 width="32px" height="32px" viewBox="128.5 288.5 32 32" enable-background="new 128.5 288.5 32 32" xml:space="preserve">
<path fill="#FFFFFF" stroke="#000000" stroke-miterlimit="10" d="M148.799,303.786l-9.742,9.743
	c-0.72,0.721-2.901,0.105-2.901,0.105l-2.111,1.86l-0.875-0.895l1.764-2.096c0,0-0.489-2.239,0.186-2.915l9.744-9.743
	L148.799,303.786z"/>
<rect x="141.09" y="300.608" transform="matrix(0.7072 0.7071 -0.7071 0.7072 256.6195 -15.2067)" width="11.154" height="3.166"/>
<path d="M155.053,293.59c1.039,1.04,1.037,2.726,0,3.765l-5.438,5.438c-1.04,1.039-2.725,1.04-3.765,0l0,0
	c-1.04-1.04-1.04-2.726,0-3.766l5.438-5.438C152.326,292.551,154.013,292.55,155.053,293.59L155.053,293.59z"/>
</svg>
