<?xml version="1.0" encoding="utf-8"?>
<!-- Generator: Adobe Illustrator 16.0.0, SVG Export Plug-In . SVG Version: 6.00 Build 0)  -->
<!DOCTYPE svg PUBLIC "-//W3C//DTD SVG 1.1//EN" "http://www.w3.org/Graphics/SVG/1.1/DTD/svg11.dtd">
<svg version="1.1" id="Layer_1" xmlns="http://www.w3.org/2000/svg" xmlns:xlink="http://www.w3.org/1999/xlink" x="0px" y="0px"
	 width="32px" height="32px" viewBox="160.5 256.5 32 32" enable-background="new 160.5 256.5 32 32" xml:space="preserve">
<polygon fill="#FFFFFF" stroke="#000000" stroke-miterlimit="10" points="172.171,267.359 165.125,272.941 175.93,283.747 
	181.633,276.82 "/>
<path d="M182.887,267.846c1.937-1.373,2.828-1.869,3.301-2.342c0.996-0.997,0.996-2.611,0-3.607s-2.61-0.996-3.606,0
	c-0.488,0.487-1.08,1.482-2.478,3.494c-0.235,0.34-0.758,1.248-1.194,0.873l-3.304-2.222l-2.938,2.042l10.25,10.25l1.958-2.884
	l-2.624-3.998C181.896,268.958,182.047,268.441,182.887,267.846z M184.234,262.775c0.593,0,1.07,0.479,1.07,1.069
	s-0.479,1.07-1.07,1.07c-0.59,0-1.068-0.479-1.068-1.07S183.645,262.775,184.234,262.775z"/>
<polygon points="167.342,275.039 172.695,270.5 167.945,275.646 "/>
<polygon points="169.275,276.986 174.63,272.448 169.882,277.596 "/>
<polygon points="171.212,278.936 176.564,274.396 171.816,279.544 "/>
<polygon points="173.146,280.883 178.5,276.346 173.751,281.492 "/>
</svg>
